<svg xmlns="http://www.w3.org/2000/svg" viewBox="0 0 64 64"><path d="M24 53.333h-10.667c-0.736 0-1.4-0.296-1.885-0.781s-0.781-1.149-0.781-1.885v-37.333c0-0.736 0.296-1.4 0.781-1.885s1.149-0.781 1.885-0.781h10.667c1.472 0 2.667-1.195 2.667-2.667s-1.195-2.667-2.667-2.667h-10.667c-2.208 0-4.213 0.899-5.656 2.344s-2.344 3.448-2.344 5.656v37.333c0 2.208 0.899 4.213 2.344 5.656s3.448 2.344 5.656 2.344h10.667c1.472 0 2.667-1.195 2.667-2.667s-1.195-2.667-2.667-2.667zM49.563 29.333h-25.563c-1.472 0-2.667 1.195-2.667 2.667s1.195 2.667 2.667 2.667h25.563l-8.781 8.781c-1.043 1.043-1.043 2.731 0 3.771s2.731 1.043 3.771 0l13.333-13.333c0.245-0.245 0.443-0.539 0.579-0.864 0.4-0.965 0.208-2.12-0.579-2.907l-13.333-13.333c-1.043-1.043-2.731-1.043-3.771 0s-1.043 2.731 0 3.771z"></path></svg>