<svg xmlns="http://www.w3.org/2000/svg" viewBox="0 0 64 64">
<path d="M45.333 56v-5.333c0-3.68-1.496-7.019-3.904-9.429s-5.749-3.904-9.429-3.904h-18.667c-3.68 0-7.019 1.496-9.429 3.904s-3.904 5.749-3.904 9.429v5.333c0 1.472 1.195 2.667 2.667 2.667s2.667-1.195 2.667-2.667v-5.333c0-2.211 0.893-4.205 2.344-5.656s3.445-2.344 5.656-2.344h18.667c2.211 0 4.205 0.893 5.656 2.344s2.344 3.445 2.344 5.656v5.333c0 1.472 1.195 2.667 2.667 2.667s2.667-1.195 2.667-2.667zM36 18.667c0-3.68-1.496-7.019-3.904-9.429s-5.749-3.904-9.429-3.904-7.019 1.496-9.429 3.904-3.904 5.749-3.904 9.429 1.496 7.019 3.904 9.429 5.749 3.904 9.429 3.904 7.019-1.496 9.429-3.904 3.904-5.749 3.904-9.429zM30.667 18.667c0 2.211-0.893 4.205-2.344 5.656s-3.445 2.344-5.656 2.344-4.205-0.893-5.656-2.344-2.344-3.445-2.344-5.656 0.893-4.205 2.344-5.656 3.445-2.344 5.656-2.344 4.205 0.893 5.656 2.344 2.344 3.445 2.344 5.656zM61.333 26.667h-5.333v-5.333c0-1.472-1.195-2.667-2.667-2.667s-2.667 1.195-2.667 2.667v5.333h-5.333c-1.472 0-2.667 1.195-2.667 2.667s1.195 2.667 2.667 2.667h5.333v5.333c0 1.472 1.195 2.667 2.667 2.667s2.667-1.195 2.667-2.667v-5.333h5.333c1.472 0 2.667-1.195 2.667-2.667s-1.195-2.667-2.667-2.667z"></path>
</svg>