<svg xmlns="http://www.w3.org/2000/svg" viewBox="0 0 64 64">
<path d="M29.333 8h-18.667c-2.208 0-4.213 0.899-5.656 2.344s-2.344 3.448-2.344 5.656v37.333c0 2.208 0.899 4.213 2.344 5.656s3.448 2.344 5.656 2.344h37.333c2.208 0 4.213-0.899 5.656-2.344s2.344-3.448 2.344-5.656v-18.667c0-1.472-1.195-2.667-2.667-2.667s-2.667 1.195-2.667 2.667v18.667c0 0.736-0.296 1.4-0.781 1.885s-1.149 0.781-1.885 0.781h-37.333c-0.736 0-1.4-0.296-1.885-0.781s-0.781-1.149-0.781-1.885v-37.333c0-0.736 0.296-1.4 0.781-1.885s1.149-0.781 1.885-0.781h18.667c1.472 0 2.667-1.195 2.667-2.667s-1.195-2.667-2.667-2.667zM47.448 4.781l-25.333 25.333c-0.325 0.323-0.579 0.747-0.701 1.24l-2.667 10.667c-0.104 0.4-0.112 0.848 0 1.293 0.357 1.429 1.805 2.299 3.235 1.941l10.667-2.667c0.445-0.109 0.88-0.344 1.24-0.701l25.333-25.333c1.624-1.624 2.437-3.76 2.437-5.885s-0.813-4.261-2.437-5.885-3.763-2.44-5.888-2.44-4.261 0.813-5.885 2.437zM51.219 8.552c0.584-0.584 1.344-0.875 2.115-0.875s1.531 0.291 2.115 0.875 0.875 1.344 0.875 2.115-0.291 1.531-0.875 2.115l-24.811 24.811-5.637 1.411 1.411-5.637z"></path>
</svg>